<svg xmlns="http://www.w3.org/2000/svg" viewBox="0 0 960 600" role="img" aria-label="Placeholder for consistent character inner world artwork">
  <defs>
    <linearGradient id="bg" x1="0" y1="0" x2="1" y2="1">
      <stop offset="0" stop-color="#f5fbff"/>
      <stop offset="0.48" stop-color="#e3ecff"/>
      <stop offset="1" stop-color="#f4fff9"/>
    </linearGradient>
    <linearGradient id="panel" x1="0" y1="0" x2="1" y2="1">
      <stop offset="0" stop-color="#ffffff" stop-opacity="0.96"/>
      <stop offset="1" stop-color="#eef5ff" stop-opacity="0.9"/>
    </linearGradient>
    <linearGradient id="core" x1="0" y1="0" x2="1" y2="1">
      <stop offset="0" stop-color="#ffffff"/>
      <stop offset="1" stop-color="#e9f1ff"/>
    </linearGradient>
  </defs>
  <rect width="960" height="600" rx="56" fill="url(#bg)"/>
  <path d="M176 318 C264 210 364 220 452 302 C536 380 650 380 772 256" fill="none" stroke="#8db6ff" stroke-width="16" stroke-linecap="round" opacity="0.28"/>
  <path d="M248 220 C362 126 588 118 714 214" fill="none" stroke="#8194dc" stroke-width="12" stroke-linecap="round" opacity="0.28"/>
  <circle cx="480" cy="298" r="116" fill="url(#core)"/>
  <circle cx="480" cy="298" r="76" fill="#ffffff" opacity="0.74"/>
  <circle cx="480" cy="270" r="30" fill="#8db6ff" opacity="0.84"/>
  <path d="M422 344 C440 310 520 310 538 344" fill="none" stroke="#2f3a52" stroke-width="18" stroke-linecap="round" opacity="0.64"/>
  <rect x="152" y="178" width="210" height="112" rx="34" fill="url(#panel)"/>
  <rect x="204" y="222" width="96" height="16" rx="8" fill="#2f3a52" opacity="0.7"/>
  <circle cx="180" cy="234" r="18" fill="#8db6ff" opacity="0.75"/>
  <rect x="598" y="158" width="218" height="116" rx="34" fill="url(#panel)" opacity="0.94"/>
  <rect x="652" y="204" width="104" height="16" rx="8" fill="#2f3a52" opacity="0.68"/>
  <circle cx="626" cy="216" r="18" fill="#15b87a" opacity="0.62"/>
  <rect x="164" y="368" width="238" height="116" rx="34" fill="url(#panel)" opacity="0.92"/>
  <rect x="222" y="414" width="116" height="16" rx="8" fill="#2f3a52" opacity="0.68"/>
  <circle cx="192" cy="426" r="18" fill="#ffd27e" opacity="0.9"/>
  <rect x="602" y="374" width="220" height="112" rx="34" fill="url(#panel)" opacity="0.92"/>
  <rect x="656" y="418" width="100" height="16" rx="8" fill="#2f3a52" opacity="0.66"/>
  <circle cx="630" cy="430" r="18" fill="#f58f86" opacity="0.72"/>
</svg>
